<?xml version="1.0" encoding="utf-8"?>
<?xml-stylesheet type="text/xsl" href="rss1.xsl"?>
<rss version="2.0" xmlns:atom="http://www.w3.org/2005/Atom" xmlns:content="http://purl.org/rss/1.0/modules/content/" xmlns:dc="http://purl.org/dc/elements/1.1/" xmlns:media="http://search.yahoo.com/mrss/">
<channel>
 <title>Getty</title>
 <link>http://www.gettyimg.com/</link>
 <atom:link href="http://www.gettyimg.com/" rel="self" type="application/rss+xml" />

 
                <item>
                <title><![CDATA[【HD Live Performances】WEB-DL - Jennifer Lopez - Apple Music Live 2024 1080p WEB-DL H.264 AAC2.0]]></title>
                <link><![CDATA[https://sharemania.us/threads/jennifer-lopez-apple-music-live-2024-1080p-web-dl-h-264-aac2-0.238293/]]></link>
                <description><![CDATA[<article>
<blockquote class="messageText SelectQuoteContainer ugc baseHtml">
<a href="https://imgbox.com/ehzOqJbz" target="_blank" class="externalLink" rel="nofollow"><img src="https://images2.imgbox.com/60/f6/ehzOqJbz_o.png" class="bbCodeImage LbImage" alt="[​IMG]" data-url="https://images2.imgbox.com/60/f6/ehzOqJbz_o.png"></a><br>
<div class="ToggleTriggerAnchor bbCodeSpoilerContainer">
<button type="button" class="button bbCodeSpoilerButton ToggleTrigger Tooltip JsOnly" data-target="> .SpoilerTarget"><span>Spoiler: <span class="SpoilerTitle">Mediainfo</span></span></button>
<div class="SpoilerTarget bbCodeSpoilerText">
<div class="bbCodeBlock bbCodeCode">
<div class="type">Code:</div>
<pre>General
Unique ID                   : 24997958835461607336265153134400930054 (0x12CE6E86F84C80B19DFAEFF6A8AC8106)
Complete name               : Jennifer Lopez - Apple Music Live (AM-WEB-DL-1080p-H264-AAC-2024).mkv
Format                      : Matroska
Format version              : Version 4
File size                   : 4.96 GiB
Duration                    : 1 h 10 min
Overall bit rate            : 10.0 Mb/s
Frame rate                  : 23.976 FPS
Writing application         : mkvmerge v82.0 ('I'm The President') 64-bit
Writing library             : libebml v1.4.5 + libmatroska v1.7.1

Video
ID                          : 1
Format                      : AVC
Format/Info                 : Advanced Video Codec
Format profile              : High@L4
Format settings             : CABAC / 4 Ref Frames
Format settings, CABAC      : Yes
Format settings, Reference  : 4 frames
Format settings, Slice coun : 8 slices per frame
Codec ID                    : V_MPEG4/ISO/AVC
Duration                    : 1 h 10 min
Bit rate                    : 9 744 kb/s
Width                       : 1 920 pixels
Height                      : 1 080 pixels
Display aspect ratio        : 16:9
Frame rate mode             : Constant
Frame rate                  : 23.976 (24000/1001) FPS
Color space                 : YUV
Chroma subsampling          : 4:2:0
Bit depth                   : 8 bits
Scan type                   : Progressive
Bits/(Pixel*Frame)          : 0.196
Stream size                 : 4.82 GiB (97%)
Language                    : English
Default                     : No
Forced                      : No
Color range                 : Limited
Color primaries             : BT.709
Transfer characteristics    : BT.709
Matrix coefficients         : BT.709

Audio
ID                          : 2
Format                      : AAC LC
Format/Info                 : Advanced Audio Codec Low Complexity
Codec ID                    : A_AAC-2
Duration                    : 1 h 10 min
Bit rate                    : 274 kb/s
Channel(s)                  : 2 channels
Channel layout              : L R
Sampling rate               : 48.0 kHz
Frame rate                  : 46.875 FPS (1024 SPF)
Compression mode            : Lossy
Stream size                 : 139 MiB (3%)
Language                    : English
Default                     : Yes
Forced                      : No

Menu
00:00:00.000                : Intro
00:01:31.264                : Hearts and Flowers
00:04:44.267                : Jenny from the Block
00:13:29.899                : Rebound
00:17:05.216                : This Time Around / Love Don’t Cost a Thing
00:22:06.741                : All I Have
00:30:17.280                : Dear Ben, Pt. II / Dear Ben / Moments In Love
00:38:28.778                : I’m Glad
00:40:59.648                : Hummingbird
00:45:10.997                : Broken Like Me
00:54:10.517                : Can't Get Enough
00:59:37.472                : Midnight Trip to Vegas / If You Had My Love
01:03:09.120                : This Is Me…Now

</pre>
</div></div>
</div>
<div class="bbCodeBlock bbCodeVfcHH HiddenContent">
<div class="attribution type">Hidden Content:</div>
<blockquote>You must reply before you can see the hidden data contained here.</blockquote>
</div>
<div class="messageTextEndMarker">&nbsp;</div>
</blockquote>
</article>]]></description>
                <author><![CDATA[Plazik]]></author>
                </item>

                </channel></rss>